<svg width="30" height="25" viewBox="0 0 30 25" fill="none" xmlns="http://www.w3.org/2000/svg">
<path d="M26.3231 18.409C26.198 18.4096 26.0874 18.328 26.0514 18.2084C26.0154 18.0888 26.0624 17.9598 26.1671 17.8915C27.8959 16.755 28.9356 14.8268 28.9338 12.761C28.9338 10.253 27.4286 8.0196 25.0989 7.07085C25.0026 7.03153 24.9357 6.9426 24.9249 6.83928C24.6945 4.64225 23.3529 2.71592 21.3698 1.73459C19.3866 0.75327 17.038 0.853614 15.1461 2.0005C15.0562 2.05491 14.9434 2.05491 14.8534 2.0005C12.9616 0.853614 10.613 0.75327 8.62982 1.73459C6.6467 2.71592 5.30509 4.64225 5.07471 6.83928C5.06381 6.94253 4.99697 7.03147 4.9007 7.07085C2.57101 8.0196 1.06583 10.253 1.06583 12.761C1.06386 14.8271 2.10372 16.7555 3.83265 17.892C3.91681 17.9476 3.96489 18.0437 3.95878 18.1442C3.95266 18.2447 3.89328 18.3343 3.80301 18.3793C3.71274 18.4243 3.60529 18.4177 3.52113 18.3622C1.46359 17.008 0.313737 14.6386 0.524756 12.1879C0.735776 9.73728 2.27383 7.59841 4.53271 6.61428C4.83261 4.29121 6.27532 2.27113 8.37795 1.23023C10.4805 0.189342 12.9651 0.265196 15 1.4324C17.0353 0.267842 19.5186 0.193346 21.6203 1.2338C23.722 2.27426 25.165 4.29251 25.4673 6.61428C27.7262 7.59841 29.2643 9.73728 29.4753 12.1879C29.6863 14.6386 28.5364 17.008 26.4789 18.3622C26.4327 18.3928 26.3785 18.409 26.3231 18.409Z" fill="#0F84FD" stroke="#0F84FD" stroke-width="0.7"/>
<path d="M15.0016 24.5C14.8412 24.5 14.6809 24.4911 14.5215 24.473C14.2267 24.4391 13.9921 24.2105 13.9511 23.9171L13.8993 23.5507C13.8964 23.5213 13.8776 23.4958 13.8503 23.4844C13.733 23.4432 13.6181 23.3956 13.5061 23.342C13.4786 23.3309 13.4472 23.3355 13.4241 23.354L13.1279 23.576C13.0149 23.6612 12.877 23.7071 12.7353 23.7065C12.5868 23.7063 12.4428 23.656 12.3266 23.5635C12.0796 23.3665 11.8553 23.1428 11.6577 22.8963C11.4708 22.6639 11.4658 22.3346 11.6454 22.0965L11.8678 21.8011C11.8865 21.7781 11.8912 21.7468 11.8799 21.7193C11.8258 21.6071 11.7778 21.4919 11.7364 21.3743C11.7249 21.3472 11.6996 21.3285 11.6702 21.3255L11.3024 21.2728C11.0088 21.2317 10.7799 20.9981 10.7454 20.7043C10.7274 20.5463 10.7185 20.3874 10.7185 20.2284C10.7185 20.0686 10.7276 19.909 10.7456 19.7501C10.7797 19.456 11.0087 19.2219 11.3026 19.1809L11.6686 19.1293C11.6982 19.1263 11.7237 19.1075 11.7351 19.0801C11.7763 18.9631 11.8239 18.8485 11.8776 18.7366C11.8889 18.7092 11.8843 18.6778 11.8655 18.6548L11.6444 18.3596C11.4659 18.1215 11.4712 17.793 11.6573 17.5608C11.855 17.314 12.0796 17.09 12.327 16.8928C12.443 16.8005 12.5869 16.7501 12.7353 16.7498C12.8766 16.7495 13.0143 16.7951 13.1271 16.88L13.4231 17.1017C13.4463 17.1201 13.4775 17.1246 13.5049 17.1136C13.6174 17.0596 13.7328 17.0119 13.8506 16.9706C13.8781 16.9593 13.8969 16.9338 13.8998 16.9043L13.9516 16.5401C13.9928 16.2469 14.2271 16.0184 14.5219 15.9843C14.8399 15.9486 15.1611 15.9486 15.4791 15.9843C15.7738 16.0185 16.0081 16.247 16.0491 16.5401L16.1008 16.9043C16.1038 16.9338 16.1228 16.9593 16.1502 16.9706C16.2679 17.0121 16.3833 17.06 16.4959 17.114C16.5233 17.1251 16.5545 17.1205 16.5775 17.1019L16.8731 16.881C16.9861 16.7961 17.1237 16.7505 17.2651 16.7508C17.4138 16.751 17.5581 16.8015 17.6744 16.8941C17.9204 17.091 18.1442 17.3141 18.3416 17.5596C18.5281 17.7918 18.5336 18.1203 18.3552 18.3586L18.1323 18.6554C18.1136 18.6783 18.1089 18.7096 18.1201 18.737C18.1739 18.849 18.2215 18.9638 18.2628 19.0809C18.2742 19.1082 18.2998 19.1271 18.3293 19.13L18.6954 19.1817C18.9893 19.2228 19.2182 19.4568 19.2523 19.751C19.2703 19.9097 19.2794 20.0693 19.2794 20.2291C19.2794 20.3881 19.2703 20.5469 19.2523 20.7048C19.218 20.9988 18.9891 21.2326 18.6954 21.2735L18.3276 21.3262C18.2981 21.3291 18.2727 21.3479 18.2613 21.3751C18.2198 21.4921 18.1719 21.6068 18.1178 21.7186C18.1065 21.746 18.1111 21.7774 18.1299 21.8004L18.3535 22.0985C18.5319 22.3367 18.5264 22.6651 18.3401 22.8973C18.1429 23.1431 17.9191 23.3665 17.6728 23.5633C17.5566 23.6558 17.4124 23.7063 17.2638 23.7065C17.1223 23.7069 16.9846 23.6612 16.8716 23.5764L16.5766 23.3535C16.5534 23.335 16.5221 23.3303 16.4946 23.3414C16.3825 23.3953 16.2675 23.4429 16.1502 23.484C16.1229 23.4954 16.1041 23.5209 16.1012 23.5503L16.0491 23.9168C16.0082 24.21 15.7738 24.4385 15.4791 24.4726C15.3206 24.4906 15.1612 24.4998 15.0016 24.5ZM13.4781 22.7718C13.5728 22.7715 13.6663 22.7927 13.7518 22.8336C13.8449 22.8785 13.9405 22.918 14.0381 22.9521C14.2651 23.0326 14.4278 23.2332 14.4594 23.4715L14.5113 23.8378C14.5161 23.877 14.5468 23.908 14.586 23.9131C14.8617 23.9441 15.1399 23.9441 15.4156 23.9131C15.4547 23.908 15.4854 23.8771 15.4903 23.838L15.5421 23.4715C15.5738 23.2333 15.7366 23.0327 15.9635 22.9521C16.0611 22.918 16.1568 22.8784 16.2501 22.8336C16.3354 22.7926 16.4289 22.7713 16.5238 22.7716C16.665 22.7721 16.8024 22.818 16.9155 22.9025L17.2134 23.1254C17.2288 23.1369 17.2474 23.1431 17.2666 23.143C17.2869 23.1432 17.3068 23.1364 17.3227 23.1238C17.5365 22.9528 17.7308 22.7587 17.9018 22.545C17.9274 22.5134 17.9282 22.4685 17.9039 22.436L17.6803 22.1377C17.5345 21.9465 17.5083 21.6898 17.6123 21.473C17.6572 21.3801 17.697 21.2848 17.7314 21.1875C17.8121 20.962 18.0122 20.8002 18.2499 20.7681L18.6179 20.7156C18.6571 20.7105 18.6879 20.6798 18.6931 20.6408C18.7242 20.3662 18.7242 20.089 18.6931 19.8144C18.688 19.7752 18.6571 19.7443 18.6178 19.7395L18.2517 19.6879C18.0127 19.6565 17.8114 19.4941 17.7304 19.2675C17.6961 19.1696 17.6564 19.0736 17.6116 18.98C17.5086 18.7636 17.5353 18.508 17.6805 18.3173L17.9031 18.0198C17.9274 17.9873 17.9266 17.9423 17.901 17.9108C17.7295 17.6975 17.5352 17.5035 17.3214 17.3325C17.3054 17.32 17.2856 17.3131 17.2653 17.3133C17.2461 17.3133 17.2274 17.3195 17.2121 17.331L16.9165 17.5523C16.8034 17.6369 16.666 17.6828 16.5247 17.6833C16.43 17.6835 16.3365 17.6623 16.2512 17.6213C16.1574 17.5762 16.0613 17.5363 15.9631 17.5017C15.7365 17.4211 15.574 17.2209 15.5421 16.9829L15.4904 16.6187C15.4854 16.5796 15.4547 16.5488 15.4156 16.5436C15.1399 16.5126 14.8617 16.5126 14.586 16.5436C14.5468 16.5486 14.516 16.5796 14.5111 16.6187L14.4593 16.9829C14.4275 17.2209 14.2651 17.4211 14.0384 17.5017C13.9407 17.5361 13.8448 17.5758 13.7513 17.6206C13.6659 17.6619 13.5721 17.6833 13.4771 17.683C13.3359 17.6825 13.1986 17.6366 13.0854 17.5521L12.7889 17.3317C12.7737 17.3196 12.7548 17.3128 12.7353 17.3126C12.7149 17.3123 12.6951 17.3191 12.6791 17.3317C12.4645 17.5028 12.2696 17.6971 12.0981 17.9111C12.0726 17.9428 12.0718 17.9877 12.096 18.0204L12.3182 18.3163C12.4638 18.5071 12.4906 18.763 12.3875 18.9796C12.3428 19.0733 12.3031 19.1693 12.2688 19.2671C12.1881 19.4936 11.9873 19.6559 11.7486 19.6877L11.3824 19.7392C11.3432 19.7442 11.3122 19.775 11.307 19.8142C11.2914 19.9518 11.2836 20.0902 11.2836 20.2288C11.2836 20.3664 11.2914 20.5039 11.307 20.6406C11.3121 20.6796 11.3429 20.7103 11.3821 20.7154L11.7499 20.7679C11.9877 20.8001 12.1877 20.9619 12.2684 21.1875C12.303 21.2854 12.3429 21.3814 12.3879 21.475C12.4919 21.6921 12.4651 21.9491 12.3186 22.1402L12.0962 22.4356C12.0718 22.4681 12.0725 22.5131 12.0981 22.5448C12.2696 22.7586 12.4643 22.9527 12.6787 23.1236C12.7104 23.1492 12.7555 23.15 12.7881 23.1256L13.0841 22.9036C13.1974 22.8185 13.3353 22.7722 13.4771 22.7718H13.4781Z" fill="#0F84FD" stroke="#0F84FD" stroke-width="0.2"/>
<path d="M14.9998 21.9495C14.0472 21.9495 13.2749 21.1788 13.2749 20.2282C13.2749 19.2775 14.0472 18.5068 14.9998 18.5068C15.9524 18.5068 16.7247 19.2775 16.7247 20.2282C16.7236 21.1784 15.952 21.9485 14.9998 21.9495ZM14.9998 19.0705C14.3592 19.0706 13.8398 19.589 13.8399 20.2283C13.84 20.8676 14.3594 21.3858 15 21.3858C15.6407 21.3858 16.16 20.8675 16.16 20.2282C16.1593 19.589 15.6402 19.0711 14.9998 19.0705Z" fill="#0F84FD" stroke="#0F84FD" stroke-width="0.2"/>
<path d="M7.82423 23.3858H7.12835C6.85079 23.386 6.61742 23.1779 6.58642 22.9026L6.56717 22.7286C6.54854 22.5567 6.4486 22.4041 6.29829 22.318C6.28254 22.3092 6.2666 22.3 6.25104 22.2909C6.16962 22.2433 6.07688 22.2185 5.98255 22.2192C5.90638 22.2192 5.83105 22.235 5.7613 22.2655L5.60074 22.3353C5.34599 22.4466 5.04812 22.3489 4.90932 22.1084L4.56149 21.5071C4.42263 21.2672 4.48645 20.9614 4.70977 20.7968L4.85093 20.6927C4.99029 20.5914 5.07268 20.4297 5.07257 20.2577C5.07257 20.2396 5.07257 20.2214 5.07257 20.2032C5.07325 20.0302 4.99085 19.8673 4.85093 19.765L4.70977 19.661C4.48626 19.4964 4.42242 19.1905 4.56149 18.9505L4.90951 18.3492C5.04832 18.1094 5.34553 18.0117 5.59997 18.1225L5.75784 18.1911C5.82477 18.2202 5.89704 18.2352 5.97007 18.235C6.07549 18.2342 6.17883 18.2056 6.26967 18.1522L6.27873 18.147C6.44117 18.0539 6.54623 17.9 6.56679 17.7254L6.58598 17.5544C6.61717 17.2792 6.85048 17.0712 7.12798 17.0712H7.82367C8.10148 17.0709 8.3351 17.2791 8.36623 17.5546L8.38542 17.729C8.40404 17.9009 8.50398 18.0535 8.65429 18.1395L8.70098 18.1666C8.7821 18.2141 8.87448 18.239 8.96854 18.2389C9.0446 18.2389 9.11985 18.2231 9.18954 18.1927L9.35073 18.1225C9.60554 18.0115 9.90323 18.1093 10.0421 18.3496L10.39 18.9509C10.5289 19.1909 10.465 19.4967 10.2415 19.6612L10.1004 19.7652C9.96073 19.8665 9.87829 20.0284 9.87867 20.2005C9.87867 20.2185 9.87867 20.2365 9.87867 20.2546C9.87804 20.4275 9.96035 20.5903 10.1001 20.6925L10.2417 20.797C10.4646 20.9614 10.5284 21.2665 10.39 21.5062L10.0421 22.1074C9.90335 22.3479 9.60548 22.4457 9.35073 22.3345L9.19323 22.2661C9.12623 22.2369 9.05392 22.222 8.98079 22.2222C8.87585 22.2229 8.77298 22.2513 8.68254 22.3044L8.6741 22.3094C8.50967 22.4035 8.40517 22.5572 8.38467 22.7311L8.36542 22.9015C8.33485 23.1769 8.10185 23.3854 7.82423 23.3858ZM7.14642 22.8223H7.80829L7.82573 22.669C7.86529 22.3196 8.07792 22.0028 8.39423 21.8217L8.3981 21.8194H8.40004C8.57685 21.7159 8.77798 21.661 8.98292 21.6602C9.13367 21.6599 9.28285 21.6908 9.42098 21.7509L9.56292 21.8126L9.89292 21.2394L9.76498 21.145C9.47954 20.9352 9.3121 20.6015 9.3146 20.2477V20.2067C9.31248 19.8535 9.4801 19.5207 9.76535 19.3118L9.89292 19.2177L9.56198 18.6457L9.41623 18.7092C9.27548 18.7706 9.12348 18.8023 8.96985 18.8022C8.77435 18.8024 8.58235 18.7502 8.41404 18.6509C8.4021 18.6438 8.39042 18.6369 8.37829 18.6302C8.07004 18.4552 7.86442 18.1434 7.82517 17.7917L7.8071 17.6337H7.14642L7.12898 17.7871C7.08923 18.1363 6.87698 18.4529 6.56085 18.6342L6.55679 18.6365L6.5541 18.6381C6.37735 18.7411 6.1765 18.7958 5.97179 18.7966C5.82095 18.7975 5.67157 18.767 5.53313 18.7073L5.39081 18.6454L5.0597 19.2173L5.18742 19.3114C5.47308 19.5213 5.64062 19.8552 5.63799 20.2092C5.63799 20.223 5.63799 20.2367 5.63799 20.2507C5.64007 20.6039 5.47255 20.9367 5.18742 21.1459L5.05989 21.2399L5.39062 21.8119L5.53582 21.7488C5.67669 21.6873 5.82879 21.6556 5.98255 21.6557C6.17783 21.6554 6.3696 21.7075 6.53779 21.8065C6.54973 21.8136 6.56179 21.8207 6.57392 21.8274C6.8821 22.002 7.08779 22.3135 7.12723 22.665L7.14642 22.8223ZM7.47754 21.409C6.88354 21.4095 6.3811 20.9706 6.3031 20.3829C6.22504 19.7953 6.59554 19.2409 7.16917 19.087C7.74285 18.9331 8.34192 19.2274 8.56973 19.7749C8.79748 20.3224 8.58329 20.9535 8.0691 21.2503C7.88892 21.3541 7.6846 21.4088 7.4766 21.409H7.47754ZM7.47754 19.611C7.1976 19.6106 6.95242 19.798 6.87973 20.0678C6.8071 20.3375 6.9251 20.6224 7.16748 20.7622C7.40985 20.9019 7.7161 20.8617 7.91404 20.6642C8.11192 20.4666 8.15217 20.161 8.01204 19.9192C7.90148 19.7282 7.69717 19.6107 7.47623 19.611H7.47754Z" fill="#0F84FD" stroke="#0F84FD" stroke-width="0.2"/>
<path d="M22.8712 23.3858H22.1754C21.8978 23.386 21.6645 23.178 21.6334 22.9029L21.6141 22.7286C21.5955 22.5567 21.4956 22.4041 21.3453 22.318C21.3295 22.3092 21.3136 22.3 21.2978 22.2909C21.2169 22.2433 21.1246 22.2184 21.0307 22.2186C20.9545 22.2187 20.8792 22.2344 20.8095 22.265L20.6483 22.3342C20.5796 22.3642 20.5055 22.3796 20.4305 22.3796C20.2355 22.3793 20.0555 22.2755 19.9576 22.1072L19.6098 21.506C19.4715 21.2664 19.5353 20.9612 19.7581 20.7968L19.8993 20.6925C20.0386 20.5912 20.121 20.4295 20.1209 20.2575C20.1209 20.2394 20.1209 20.2212 20.1209 20.203C20.1218 20.0299 20.0394 19.8667 19.8993 19.7645L19.7581 19.6604C19.5346 19.4958 19.4708 19.1899 19.6098 18.9499L19.9569 18.3487C20.0956 18.1081 20.3936 18.0104 20.6483 18.1219L20.8061 18.1905C20.8733 18.2197 20.9456 18.2346 21.0188 18.2344C21.1235 18.2337 21.2262 18.2054 21.3165 18.1524L21.3259 18.147C21.4895 18.0533 21.5948 17.8994 21.614 17.7254L21.6332 17.5544C21.6643 17.2792 21.8976 17.0712 22.1752 17.0712H22.8708C23.1486 17.0706 23.3826 17.2785 23.414 17.554L23.4331 17.7284C23.4518 17.9004 23.5518 18.0529 23.7021 18.139L23.7487 18.1658C23.8298 18.2135 23.9222 18.2385 24.0163 18.2383C24.0923 18.2383 24.1676 18.2225 24.2373 18.192L24.3986 18.1219C24.4673 18.092 24.5414 18.0765 24.6163 18.0767C24.8113 18.077 24.9913 18.1807 25.0891 18.349L25.437 18.9503C25.5758 19.1903 25.512 19.4961 25.2885 19.6606L25.1475 19.7645C25.0078 19.8657 24.9253 20.0277 24.9256 20.2C24.9256 20.218 24.9256 20.236 24.9256 20.254C24.925 20.4269 25.0073 20.5897 25.1471 20.692L25.2886 20.7964C25.5116 20.9608 25.5754 21.266 25.437 21.5056L25.0891 22.1069C24.9503 22.3473 24.6525 22.4452 24.3977 22.334L24.2402 22.2655C24.1736 22.2365 24.1016 22.2215 24.029 22.2217C23.9235 22.2225 23.82 22.2511 23.7291 22.3047L23.7268 22.306L23.7203 22.3096C23.5575 22.403 23.4514 22.5567 23.4322 22.7313L23.413 22.9017C23.3823 23.1772 23.149 23.3857 22.8712 23.3858ZM22.1925 22.8224H22.8543L22.8718 22.669C22.9113 22.3196 23.124 22.0028 23.4403 21.8217L23.4462 21.8182C23.6232 21.715 23.8243 21.6602 24.0293 21.6593C24.18 21.659 24.329 21.6899 24.467 21.75L24.609 21.8117L24.9399 21.2397L24.812 21.1454C24.5265 20.9355 24.3591 20.6019 24.3616 20.248C24.3616 20.2343 24.3616 20.2205 24.3616 20.2067C24.3595 19.8535 24.5271 19.5207 24.8123 19.3118L24.9399 19.2177L24.6091 18.6457L24.4632 18.7092C24.3225 18.7707 24.1705 18.8023 24.0168 18.8022C23.8215 18.8024 23.6298 18.7503 23.4616 18.6511L23.4259 18.6306C23.1173 18.4557 22.9114 18.1437 22.8721 17.7917L22.8541 17.6337H22.1925L22.175 17.7871C22.1352 18.1363 21.923 18.4529 21.6069 18.6342L21.5986 18.6389C21.4225 18.7416 21.2223 18.7961 21.0182 18.7968C20.8675 18.797 20.7183 18.7661 20.5801 18.7059L20.4378 18.644L20.1067 19.2159L20.2344 19.31C20.5201 19.5199 20.6877 19.8538 20.685 20.2078C20.685 20.2216 20.685 20.2354 20.685 20.2494C20.6869 20.6024 20.5194 20.9349 20.2344 21.1439L20.1069 21.238L20.4376 21.8099L20.5828 21.7469C20.7237 21.6854 20.8758 21.6537 21.0295 21.6537C21.2248 21.6535 21.4166 21.7055 21.5848 21.8046C21.5967 21.8117 21.6088 21.8185 21.6209 21.8255C21.9294 22.0002 22.1353 22.3119 22.1746 22.6636L22.1925 22.8224ZM22.5236 21.409C22.101 21.4085 21.7105 21.1839 21.4983 20.819C21.2876 20.4535 21.2879 20.0037 21.4991 19.6385C21.7105 19.2733 22.1006 19.0481 22.5232 19.0475C23.1708 19.0557 23.6914 19.5819 23.6914 20.2282C23.6914 20.8745 23.1711 21.4007 22.5236 21.409ZM22.5236 19.611C22.2438 19.6111 21.999 19.7987 21.9266 20.0684C21.8543 20.338 21.9724 20.6226 22.2147 20.7622C22.457 20.9019 22.763 20.8617 22.9609 20.6644C23.1588 20.467 23.1991 20.1616 23.0594 19.9197C22.9489 19.7285 22.7448 19.6107 22.5236 19.611Z" fill="#0F84FD" stroke="#0F84FD" stroke-width="0.2"/>
<path d="M7.06675 14.1575H6.00562C5.19624 14.1563 4.54049 13.5017 4.53943 12.6939C4.53943 12.5384 4.66584 12.4122 4.82176 12.4122C4.97769 12.4122 5.10409 12.5384 5.10409 12.6939C5.10409 13.1911 5.50765 13.5943 6.00581 13.5948H7.06713C7.56569 13.5948 7.96982 13.1915 7.96982 12.6939C7.96982 12.1964 7.56569 11.7931 7.06713 11.7931H6.00024C5.19635 11.7839 4.5495 11.131 4.5495 10.3287C4.5495 9.52644 5.19635 8.87344 6.00024 8.86432H7.06675C7.87625 8.86544 8.53219 9.52019 8.53313 10.3281V10.3896C8.53313 10.5452 8.40675 10.6713 8.25082 10.6713C8.09488 10.6713 7.9685 10.5452 7.9685 10.3896V10.3281C7.9685 9.83051 7.56432 9.42719 7.06582 9.42719H6.00063C5.50209 9.42719 5.09794 9.83051 5.09794 10.3281C5.09794 10.8256 5.50209 11.2289 6.00063 11.2289H7.06732C7.87782 11.2289 8.53488 11.8846 8.53488 12.6934C8.53488 13.5022 7.87782 14.1579 7.06732 14.1579L7.06675 14.1575Z" fill="#0F84FD" stroke="#0F84FD" stroke-width="0.7"/>
<path d="M23.9992 14.1575H22.9379C22.1285 14.1563 21.4727 13.5017 21.4717 12.6939C21.4756 12.5412 21.6009 12.4194 21.7541 12.4194C21.9072 12.4194 22.0325 12.5412 22.0365 12.6939C22.0365 13.191 22.4399 13.5941 22.9381 13.5948H23.9994C24.4979 13.5948 24.9021 13.1915 24.9021 12.6939C24.9021 12.1964 24.4979 11.7931 23.9994 11.7931H22.9324C22.1286 11.7839 21.4817 11.131 21.4817 10.3287C21.4817 9.52644 22.1286 8.87344 22.9324 8.86432H23.999C24.8085 8.86544 25.4644 9.52019 25.4654 10.3281V10.3896C25.4654 10.5452 25.3389 10.6713 25.183 10.6713C25.0271 10.6713 24.9007 10.5452 24.9007 10.3896V10.3281C24.9007 9.83051 24.4966 9.42719 23.998 9.42719H22.9317C22.4332 9.42719 22.029 9.83051 22.029 10.3281C22.029 10.8256 22.4332 11.2289 22.9317 11.2289H23.9986C24.8091 11.2289 25.4661 11.8846 25.4661 12.6934C25.4661 13.5022 24.8091 14.1579 23.9986 14.1579L23.9992 14.1575Z" fill="#0F84FD" stroke="#0F84FD" stroke-width="0.7"/>
<path d="M13.8973 12.088H11.1099C10.954 12.088 10.8276 11.9619 10.8276 11.8063C10.8276 11.6507 10.954 11.5245 11.1099 11.5245H13.8973C14.0533 11.5245 14.1796 11.6507 14.1796 11.8063C14.1796 11.9619 14.0533 12.088 13.8973 12.088Z" fill="#0F84FD" stroke="#0F84FD" stroke-width="0.7"/>
<path d="M13.8973 14.1575C13.7413 14.1574 13.615 14.0312 13.615 13.8755V11.0086C13.6139 10.1353 12.9048 9.42766 12.0297 9.4266H11.8094C10.9344 9.42766 10.2253 10.1353 10.2243 11.0086V13.8755C10.227 13.978 10.1738 14.0738 10.0853 14.1258C9.99683 14.1778 9.88702 14.1778 9.79852 14.1258C9.71008 14.0738 9.65683 13.978 9.65952 13.8755V11.0086C9.6609 9.82429 10.6226 8.86447 11.8094 8.8631H12.0297C13.2166 8.86441 14.1784 9.82422 14.1796 11.0086V13.8755C14.1796 14.0312 14.0533 14.1574 13.8973 14.1575Z" fill="#0F84FD" stroke="#0F84FD" stroke-width="0.7"/>
<path d="M20.0578 12.088H17.2706C17.1147 12.088 16.9883 11.9619 16.9883 11.8063C16.9883 11.6507 17.1147 11.5245 17.2706 11.5245H20.0578C20.2137 11.5245 20.3402 11.6507 20.3402 11.8063C20.3402 11.9619 20.2137 12.088 20.0578 12.088Z" fill="#0F84FD" stroke="#0F84FD" stroke-width="0.7"/>
<path d="M20.0577 14.1575C19.9018 14.1574 19.7754 14.0312 19.7754 13.8755V11.0086C19.7745 10.1355 19.0656 9.42779 18.1906 9.4266H17.9699C17.095 9.42791 16.3861 10.1355 16.3852 11.0086V13.8755C16.3852 14.0312 16.2588 14.1573 16.1029 14.1573C15.9469 14.1573 15.8206 14.0312 15.8206 13.8755V11.0086C15.8218 9.82441 16.7832 8.86472 17.9699 8.8631H18.1906C19.3773 8.86447 20.339 9.82429 20.3403 11.0086V13.8755C20.3403 14.0313 20.2138 14.1575 20.0577 14.1575Z" fill="#0F84FD" stroke="#0F84FD" stroke-width="0.7"/>
</svg>
