<svg width="30" height="30" viewBox="0 0 30 30" fill="none" xmlns="http://www.w3.org/2000/svg">
<g clip-path="url(#clip0_180_674)">
<mask id="mask0_180_674" style="mask-type:luminance" maskUnits="userSpaceOnUse" x="0" y="0" width="30" height="30">
<path d="M30 0H0V30H30V0Z" fill="white"/>
</mask>
<g mask="url(#mask0_180_674)">
<path d="M19.4438 15.4125C18.0313 15.4125 16.8875 14.2625 16.8875 12.8563C16.8875 12.7313 16.8938 12.6 16.9125 12.4813C16.95 12.225 17.1875 12.05 17.4438 12.0875C17.7 12.125 17.875 12.3625 17.8375 12.6188C17.825 12.6938 17.8188 12.775 17.8188 12.8563C17.8188 13.75 18.5438 14.475 19.4375 14.475C20.3313 14.475 21.0563 13.75 21.0563 12.8563C21.0563 12.775 21.05 12.6938 21.0375 12.6188C21 12.3625 21.175 12.125 21.4313 12.0875C21.6875 12.0438 21.925 12.225 21.9625 12.4813C21.9813 12.6 21.9875 12.7313 21.9875 12.8563C22.0063 14.2625 20.8563 15.4125 19.4438 15.4125Z" fill="#0F84FD"/>
<path d="M19.4437 19.3251C19.2375 19.3251 19.0312 19.3188 18.8312 19.2938C18.6812 19.2813 18.5125 19.2563 18.3562 19.2313C18.2312 19.2126 18.125 19.1438 18.05 19.0438C17.975 18.9438 17.9437 18.8188 17.9625 18.6938C18.0625 18.0376 17.9062 17.4813 17.5812 17.3438C17.2437 17.2063 16.7375 17.4751 16.35 18.0063C16.2 18.2126 15.9062 18.2563 15.7 18.1126C15.1 17.6813 14.5937 17.1688 14.2 16.5876C14.0562 16.3751 14.1062 16.0876 14.3187 15.9376C14.475 15.8313 14.6187 15.7001 14.7375 15.5501C14.9875 15.2501 15.0812 14.9376 14.9937 14.7251C14.8562 14.3938 14.2937 14.2313 13.6562 14.3251C13.4062 14.3626 13.1687 14.1938 13.125 13.9438C13 13.2626 13.0062 12.5438 13.1312 11.8063C13.175 11.5563 13.4125 11.3876 13.6625 11.4251C14.0125 11.4813 14.3375 11.4626 14.6 11.3688C14.8437 11.2813 15.1125 11.4188 15.1937 11.6626C15.275 11.9063 15.1437 12.1751 14.9 12.2563C14.625 12.3501 14.3312 12.3938 13.9937 12.3938C13.9625 12.7188 13.9625 13.0438 13.9875 13.3563C14.875 13.3626 15.5937 13.7188 15.8625 14.3626C16.0875 14.9126 15.9437 15.5626 15.4625 16.1438C15.3875 16.2313 15.3125 16.3188 15.225 16.4001C15.425 16.6438 15.65 16.8751 15.9 17.0876C16.525 16.4501 17.2875 16.2126 17.9375 16.4813C18.575 16.7501 18.9375 17.4626 18.925 18.3563C19.275 18.4001 19.5937 18.3876 19.8875 18.3688C19.8812 17.4813 20.2562 16.7563 20.9 16.5001C21.5437 16.2376 22.3 16.4813 22.925 17.1251C23.175 16.9251 23.4062 16.6938 23.6125 16.4501C23.5187 16.3563 23.4312 16.2563 23.35 16.1501C22.9125 15.5938 22.7812 14.9438 23.0125 14.4188C23.2812 13.7813 24.0062 13.4251 24.8875 13.4313C24.9187 13.1126 24.9187 12.7876 24.8937 12.4688C24.4812 12.4626 24.1437 12.4063 23.8375 12.2626C23.6 12.1563 23.5 11.8751 23.6062 11.6438C23.7125 11.4063 23.9937 11.3063 24.225 11.4126C24.4812 11.5313 24.8375 11.5626 25.2312 11.5001C25.4875 11.4626 25.725 11.6376 25.7687 11.8876C25.8812 12.5938 25.875 13.3126 25.75 14.0126C25.7062 14.2626 25.475 14.4376 25.2187 14.3938C24.5625 14.2876 24.0125 14.4501 23.8687 14.7813C23.7812 14.9876 23.8625 15.2813 24.0875 15.5751C24.2125 15.7376 24.3625 15.8813 24.5312 16.0063C24.7375 16.1563 24.7875 16.4501 24.6375 16.6563C24.2125 17.2438 23.7062 17.7501 23.1187 18.1501C22.9062 18.2938 22.625 18.2438 22.475 18.0376C22.0875 17.5063 21.5812 17.2251 21.2562 17.3626C20.925 17.4938 20.7562 18.0563 20.8562 18.6938C20.8937 18.9438 20.725 19.1813 20.4812 19.2251C20.1625 19.2938 19.8187 19.3251 19.4437 19.3251Z" fill="#0F84FD"/>
<path d="M19.4438 15.4125C18.0313 15.4125 16.8875 14.2625 16.8875 12.8563C16.8875 12.7313 16.8938 12.6 16.9125 12.4813C16.95 12.225 17.1875 12.05 17.4438 12.0875C17.7 12.125 17.875 12.3625 17.8375 12.6188C17.825 12.6938 17.8188 12.775 17.8188 12.8563C17.8188 13.75 18.5438 14.475 19.4375 14.475C20.3313 14.475 21.0563 13.75 21.0563 12.8563C21.0563 12.775 21.05 12.6938 21.0375 12.6188C21 12.3625 21.175 12.125 21.4313 12.0875C21.6875 12.0438 21.925 12.225 21.9625 12.4813C21.9813 12.6 21.9875 12.7313 21.9875 12.8563C22.0063 14.2625 20.8563 15.4125 19.4438 15.4125ZM24.0438 12.3C23.9813 12.3 23.9125 12.2875 23.8563 12.2625C23.4688 12.0875 23.175 11.8 23.0375 11.45C22.775 10.8063 23.0188 10.05 23.6688 9.425C23.4625 9.175 23.2313 8.94375 22.9875 8.7375C22.3563 9.375 21.5938 9.6125 20.9563 9.34375C20.3125 9.075 19.95 8.3625 19.9688 7.4625C19.6313 7.43125 19.3063 7.43125 19 7.45625C19.0063 8.34375 18.6313 9.0625 17.9875 9.31875C17.35 9.5875 16.5813 9.3375 15.9625 8.69375C15.7188 8.89375 15.4938 9.11875 15.275 9.375C15.9125 10.0063 16.15 10.7688 15.8813 11.4063C15.725 11.7938 15.3813 12.1 14.9063 12.2625C14.6625 12.3438 14.3938 12.2125 14.3125 11.9688C14.2313 11.725 14.3625 11.4563 14.6063 11.375C14.7563 11.325 14.9438 11.225 15.0125 11.05C15.1563 10.7125 14.8813 10.2063 14.35 9.8125C14.1438 9.65625 14.1 9.36875 14.25 9.1625C14.6938 8.55625 15.2063 8.05 15.7688 7.66875C15.975 7.525 16.2625 7.575 16.4125 7.78125C16.8 8.3125 17.3 8.59375 17.6313 8.45625C17.9625 8.325 18.1313 7.7625 18.0313 7.125C17.9938 6.88125 18.15 6.65 18.3938 6.59375C18.5563 6.55625 18.7063 6.5375 18.8625 6.53125C19.375 6.475 19.95 6.49375 20.55 6.6C20.8063 6.64375 20.975 6.88125 20.9313 7.1375C20.825 7.79375 20.9813 8.34375 21.3125 8.48125C21.6438 8.61875 22.15 8.34375 22.5438 7.8125C22.6938 7.60625 22.9875 7.5625 23.1938 7.7125C23.775 8.13125 24.2813 8.64375 24.6938 9.23125C24.8438 9.44375 24.7938 9.73125 24.5813 9.88125C24.0438 10.2688 23.7625 10.7688 23.9 11.1C23.95 11.2313 24.0688 11.3375 24.2313 11.4125C24.4688 11.5188 24.575 11.7938 24.4688 12.0313C24.3938 12.2 24.2188 12.3 24.0438 12.3Z" fill="#0F84FD"/>
<path d="M19.4438 15.4125C18.0313 15.4125 16.8875 14.2625 16.8875 12.8562C16.8875 12.7312 16.8938 12.6 16.9125 12.4812C17.0938 11.2312 18.1875 10.2875 19.4438 10.2875C20.7063 10.2875 21.7938 11.2312 21.975 12.4812C21.9938 12.6 22.0001 12.725 22.0001 12.8562C22.0063 14.2625 20.8563 15.4125 19.4438 15.4125ZM19.4438 11.225C18.6438 11.225 17.9563 11.825 17.8375 12.6187C17.825 12.6937 17.8188 12.775 17.8188 12.8562C17.8188 13.75 18.5438 14.475 19.4375 14.475C20.3313 14.475 21.0563 13.75 21.0563 12.8562C21.0563 12.775 21.05 12.6937 21.0375 12.6187C20.9313 11.8187 20.2438 11.225 19.4438 11.225Z" fill="#0F84FD"/>
<path d="M18.3438 27.5375H11.7938C11.5375 27.5375 11.325 27.325 11.325 27.0687V24.55C11.325 24.2937 11.5375 24.0812 11.7938 24.0812H18.3438C18.6 24.0812 18.8125 24.2937 18.8125 24.55V27.0687C18.8125 27.3312 18.6 27.5375 18.3438 27.5375ZM12.2625 26.6H17.875V25.0187H12.2625V26.6Z" fill="#0F84FD"/>
<path d="M27.925 25.0187H2.2125C1.26875 25.0187 0.5 24.2437 0.5 23.3V4.53123C0.5 3.58748 1.26875 2.81873 2.2125 2.81873H3.225C3.48125 2.81873 3.69375 3.03123 3.69375 3.28748C3.69375 3.54373 3.48125 3.75623 3.21875 3.75623H2.2125C1.78125 3.75623 1.4375 4.10623 1.4375 4.53123V23.3C1.4375 23.7312 1.7875 24.0812 2.2125 24.0812H27.9313C28.3625 24.0812 28.7063 23.7312 28.7063 23.3V4.53123C28.7063 4.09998 28.3563 3.75623 27.9313 3.75623H26.9188C26.6625 3.75623 26.45 3.54373 26.45 3.28748C26.45 3.03123 26.6625 2.81873 26.9188 2.81873H27.9313C28.875 2.81873 29.6438 3.58748 29.6438 4.53123V23.3C29.6438 24.25 28.875 25.0187 27.925 25.0187Z" fill="#0F84FD"/>
<path d="M25.9438 22.6437H4.19375C3.4 22.6437 2.75 21.9937 2.75 21.2V1.44375C2.75 0.65 3.4 0 4.19375 0H25.9438C26.7375 0 27.3875 0.65 27.3875 1.44375V21.2062C27.3875 22 26.7375 22.6437 25.9438 22.6437ZM4.19375 0.9375C3.9125 0.9375 3.6875 1.1625 3.6875 1.44375V21.2062C3.6875 21.4875 3.9125 21.7125 4.19375 21.7125H25.9438C26.225 21.7125 26.45 21.4875 26.45 21.2062V1.44375C26.45 1.1625 26.225 0.9375 25.9438 0.9375H4.19375Z" fill="#0F84FD"/>
<path d="M26.9188 4.58746H3.21875C2.9625 4.58746 2.75 4.37496 2.75 4.11871C2.75 3.86246 2.9625 3.64996 3.21875 3.64996H26.9188C27.175 3.64996 27.3875 3.86246 27.3875 4.11871C27.3875 4.37496 27.175 4.58746 26.9188 4.58746Z" fill="#0F84FD"/>
<path d="M24.7875 2.76251H24.0063C23.75 2.76251 23.5375 2.55001 23.5375 2.29376C23.5375 2.03751 23.75 1.82501 24.0063 1.82501H24.7875C25.0438 1.82501 25.2563 2.03751 25.2563 2.29376C25.2563 2.55001 25.05 2.76251 24.7875 2.76251Z" fill="#0F84FD"/>
<path d="M22.4 2.76251H21.6188C21.3625 2.76251 21.15 2.55001 21.15 2.29376C21.15 2.03751 21.3625 1.82501 21.6188 1.82501H22.4C22.6563 1.82501 22.8688 2.03751 22.8688 2.29376C22.8688 2.55001 22.6563 2.76251 22.4 2.76251Z" fill="#0F84FD"/>
<path d="M20.0125 2.76251H19.2313C18.975 2.76251 18.7625 2.55001 18.7625 2.29376C18.7625 2.03751 18.975 1.82501 19.2313 1.82501H20.0125C20.2688 1.82501 20.4813 2.03751 20.4813 2.29376C20.4813 2.55001 20.2688 2.76251 20.0125 2.76251Z" fill="#0F84FD"/>
<path d="M17.2813 2.76251H5.35004C5.09379 2.76251 4.88129 2.55001 4.88129 2.29376C4.88129 2.03751 5.09379 1.82501 5.35004 1.82501H17.2875C17.5438 1.82501 17.7563 2.03751 17.7563 2.29376C17.7563 2.55001 17.5438 2.76251 17.2813 2.76251Z" fill="#0F84FD"/>
<path d="M22.4 30H7.73749C7.48124 30 7.26874 29.7875 7.26874 29.5313C7.26874 27.9188 8.58124 26.6 10.2 26.6H19.9375C21.55 26.6 22.8687 27.9125 22.8687 29.5313C22.8687 29.7875 22.6562 30 22.4 30ZM8.26249 29.0625H21.875C21.6625 28.1875 20.875 27.5375 19.9375 27.5375H10.2C9.26249 27.5375 8.47499 28.1875 8.26249 29.0625Z" fill="#0F84FD"/>
<path d="M12.0125 7.4375H5.09998C4.84373 7.4375 4.63123 7.225 4.63123 6.96875C4.63123 6.7125 4.84373 6.5 5.09998 6.5H12.0125C12.2687 6.5 12.4812 6.7125 12.4812 6.96875C12.4812 7.225 12.2687 7.4375 12.0125 7.4375Z" fill="#0F84FD"/>
<path d="M12.6375 9.46252H5.09998C4.84373 9.46252 4.63123 9.25002 4.63123 8.99377C4.63123 8.73752 4.84373 8.52502 5.09998 8.52502H12.6375C12.8937 8.52502 13.1062 8.73752 13.1062 8.99377C13.1062 9.25002 12.8937 9.46252 12.6375 9.46252Z" fill="#0F84FD"/>
<path d="M10.1375 11.4875H5.09998C4.84373 11.4875 4.63123 11.275 4.63123 11.0187C4.63123 10.7625 4.84373 10.55 5.09998 10.55H10.1375C10.3937 10.55 10.6062 10.7625 10.6062 11.0187C10.6062 11.275 10.3937 11.4875 10.1375 11.4875Z" fill="#0F84FD"/>
<path d="M11.3875 13.5125H5.09998C4.84373 13.5125 4.63123 13.3 4.63123 13.0438C4.63123 12.7875 4.84373 12.575 5.09998 12.575H11.3875C11.6437 12.575 11.8562 12.7875 11.8562 13.0438C11.8562 13.3 11.6437 13.5125 11.3875 13.5125Z" fill="#0F84FD"/>
<path d="M12.0125 15.5375H5.09998C4.84373 15.5375 4.63123 15.325 4.63123 15.0687C4.63123 14.8125 4.84373 14.6 5.09998 14.6H12.0125C12.2687 14.6 12.4812 14.8125 12.4812 15.0687C12.4812 15.325 12.2687 15.5375 12.0125 15.5375Z" fill="#0F84FD"/>
<path d="M13.2625 17.5625H5.09998C4.84373 17.5625 4.63123 17.35 4.63123 17.0938C4.63123 16.8375 4.84373 16.625 5.09998 16.625H13.2625C13.5187 16.625 13.7312 16.8375 13.7312 17.0938C13.7312 17.35 13.5187 17.5625 13.2625 17.5625Z" fill="#0F84FD"/>
<path d="M13.2625 19.5875H5.09998C4.84373 19.5875 4.63123 19.375 4.63123 19.1188C4.63123 18.8625 4.84373 18.65 5.09998 18.65H13.2625C13.5187 18.65 13.7312 18.8625 13.7312 19.1188C13.7312 19.375 13.5187 19.5875 13.2625 19.5875Z" fill="#0F84FD"/>
</g>
</g>
<defs>
<clipPath id="clip0_180_674">
<rect width="30" height="30" fill="white"/>
</clipPath>
</defs>
</svg>
