<svg width="30" height="30" viewBox="0 0 30 30" fill="none" xmlns="http://www.w3.org/2000/svg">
<mask id="mask0_180_763" style="mask-type:luminance" maskUnits="userSpaceOnUse" x="0" y="0" width="30" height="30">
<path d="M30 0H0V30H30V0Z" fill="white"/>
</mask>
<g mask="url(#mask0_180_763)">
<path d="M13.2156 16.1116C12.7383 16.6737 12.2781 17.2122 11.8211 17.7572C11.5609 18.0679 11.5719 18.4449 11.8336 18.6834C12.0836 18.9112 12.4414 18.8817 12.693 18.5907C13.2289 17.9695 13.7599 17.3431 14.2859 16.7115C14.6125 16.3189 14.607 15.8919 14.2758 15.4961C13.7617 14.8814 13.2432 14.2708 12.7203 13.6643C12.4406 13.3365 12.0844 13.2979 11.8227 13.5496C11.5609 13.8012 11.5711 14.1651 11.8524 14.4994C12.2961 15.0281 12.7437 15.5534 13.2156 16.1116ZM4.65155 16.1116C4.76639 15.9739 4.86092 15.8583 4.95701 15.7452C5.32733 15.3092 5.70311 14.8781 6.06639 14.4339C6.30705 14.1405 6.28123 13.7577 6.0242 13.5324C5.76717 13.307 5.43201 13.3332 5.18826 13.6143C4.6367 14.2525 4.09139 14.8964 3.55233 15.5461C3.27889 15.8739 3.25233 16.2967 3.51092 16.6164C4.07342 17.3097 4.65467 17.9884 5.24061 18.6604C5.43406 18.8659 5.73956 18.898 5.96795 18.7366C6.19841 18.5791 6.29255 18.2741 6.19373 18.0047C6.13848 17.8844 6.06574 17.7738 5.97811 17.6769C5.54686 17.1647 5.11014 16.6541 4.65155 16.1132V16.1116ZM10.1344 13.4791C10.0562 13.3561 9.98592 13.1512 9.84767 13.0381C9.49686 12.7497 9.04142 12.9742 8.92267 13.4799C8.71798 14.3536 8.52267 15.2297 8.32423 16.1026C8.13986 16.9221 7.95392 17.7343 7.77736 18.5514C7.71329 18.8473 7.82736 19.0792 8.0758 19.2218C8.32423 19.3644 8.5633 19.33 8.7453 19.1194C8.84973 18.9863 8.92236 18.8289 8.95705 18.6604C9.21717 17.5581 9.46561 16.4533 9.71642 15.3494C9.84998 14.7576 9.9828 14.1593 10.1344 13.4807V13.4791ZM8.87267 22.7976C8.7148 22.795 8.56242 22.8586 8.44948 22.9744C8.33655 23.0901 8.27229 23.2483 8.27111 23.4139C8.28123 23.7578 8.55017 24.0309 8.87811 24.0302C9.19605 24.0259 9.45311 23.7573 9.45861 23.4238C9.46348 23.2582 9.40373 23.0977 9.29305 22.9794C9.18242 22.8612 9.03054 22.7956 8.87267 22.7976Z" fill="#0F84FD"/>
<path d="M30 22.9271C29.7554 23.632 29.3101 24.0459 28.5617 24.0393C28.5109 24.0393 28.4422 24.1213 28.4109 24.1794C28.3594 24.277 28.3453 24.3966 28.2938 24.4934C28.0821 24.8826 28.0133 25.2006 28.3555 25.6145C28.7188 26.053 28.6086 26.7554 28.2281 27.1996C27.9537 27.5193 27.664 27.8243 27.3602 28.1134C26.8586 28.6086 26.0739 28.6003 25.5821 28.0946C25.4258 27.938 25.3023 27.9118 25.1344 28.0306C25.1259 28.0361 25.1166 28.0402 25.107 28.0429C24.6219 28.1946 24.2687 28.397 24.2133 29.051C24.1656 29.6075 23.5797 29.9779 23.0211 29.9935C22.6594 30.0034 22.2984 30.0009 21.9368 29.9935C21.2023 29.9829 20.6516 29.46 20.6086 28.6863C20.5938 28.4224 20.4937 28.338 20.2797 28.2437C19.8437 28.0536 19.4891 27.8528 19.0219 28.2962C18.6313 28.6634 17.9726 28.5126 17.5656 28.1249C17.2625 27.8356 16.9688 27.5331 16.6953 27.2143C16.221 26.6889 16.2303 25.8633 16.7164 25.3498C16.8664 25.1859 16.8844 25.0613 16.775 24.8778C16.709 24.7523 16.6539 24.6209 16.6102 24.4852C16.4383 24.0303 16.4391 24.0303 15.9586 24.0303C14.494 24.0303 13.0292 24.0303 11.5641 24.0303C11.1789 24.0303 10.9312 23.8221 10.8961 23.4877C10.8547 23.0845 11.1102 22.8001 11.5336 22.7985C12.5399 22.7944 13.5453 22.7985 14.5508 22.7985H14.9016C14.9016 22.4026 14.9016 22.0379 14.9016 21.6724C14.9062 20.7364 15.3742 20.2152 16.2633 20.1291C16.3665 20.1085 16.4557 20.041 16.507 19.9447C16.6406 19.6505 16.7453 19.3415 16.8672 19.0203C16.8062 18.9489 16.732 18.8694 16.6641 18.7842C16.2166 18.2531 16.2291 17.4516 16.6929 16.9361C16.9453 16.6509 17.2109 16.3779 17.4781 16.1083C18.0187 15.5641 18.7711 15.5461 19.3227 16.0804C19.4719 16.2255 19.5867 16.2599 19.7492 16.137C19.8052 16.0955 19.8679 16.0652 19.9344 16.0476C20.3594 15.9378 20.6047 15.7354 20.6437 15.2019C20.6836 14.6503 21.1851 14.2413 21.7179 14.1937C22.1364 14.1595 22.5565 14.1526 22.9757 14.1733C23.7297 14.2044 24.2257 14.715 24.2812 15.5084C24.2953 15.7141 24.3516 15.8124 24.5429 15.8722C24.7773 15.9452 24.9898 16.0763 25.2203 16.1583C25.2984 16.187 25.4383 16.1804 25.4906 16.1263C25.796 15.8032 26.2226 15.6395 26.6547 15.6797V9.455H1.17813V9.79019C1.17813 13.366 1.17188 16.941 1.18672 20.5168C1.18746 20.9143 1.25818 21.3083 1.39531 21.6789C1.67813 22.4166 2.20859 22.8181 3.00781 22.8018C4.04219 22.7804 5.07812 22.796 6.11328 22.8018C6.56169 22.8018 6.82969 23.0378 6.825 23.4222C6.82031 23.8066 6.55156 24.0344 6.10078 24.0352C5.09453 24.0352 4.08672 23.9967 3.08359 24.0442C1.28672 24.1262 0.275781 22.6886 0.05625 21.3495C0.0413693 21.2801 0.0225864 21.2116 0 21.1446V2.88857C0.0203125 2.80662 0.0460938 2.73531 0.059375 2.65664C0.328906 1.08059 1.46484 0.000396865 2.87187 0.000396865C10.2511 0.000396865 17.6299 0.000396865 25.0086 0.000396865C25.7408 -0.0127729 26.4437 0.302363 26.9406 0.866688C27.6297 1.62151 27.8679 2.54518 27.8664 3.56554C27.8617 7.75356 27.8664 11.9416 27.8594 16.1296C27.8444 16.4027 27.9458 16.6687 28.1359 16.8558C28.6946 17.4352 28.6961 18.2261 28.1734 18.8367C28.1219 18.8965 28.0719 18.9579 28.0312 19.0071C28.1555 19.3267 28.2609 19.6349 28.3984 19.9275C28.4526 20.0315 28.5478 20.105 28.6586 20.1283C28.9914 20.1537 29.3118 20.2266 29.5382 20.4848C29.7234 20.6962 29.8507 20.9651 30 21.2085V22.9271ZM26.6774 8.16994C26.6774 7.82981 26.6774 7.52325 26.6774 7.21756C26.6774 5.85461 26.6976 4.49166 26.6594 3.13035C26.6257 1.94606 25.8781 1.23057 24.7563 1.23057H15.4101C11.2602 1.23057 7.10988 1.23057 2.95938 1.23057C2.27813 1.23057 1.775 1.53464 1.49141 2.15014C1.31155 2.53379 1.20941 2.95237 1.19141 3.3795C1.15703 4.90554 1.17734 6.43244 1.17891 7.95925C1.183 8.031 1.19082 8.10238 1.20234 8.17319L26.6774 8.16994ZM27.4094 17.8409C27.2531 17.6769 27.1156 17.5237 26.9734 17.3746C26.4836 16.859 26.4828 16.8599 25.9906 17.3614C25.6633 17.6958 25.4719 17.6958 25.0531 17.4819C24.607 17.2564 24.1481 17.0598 23.6789 16.8934C23.2539 16.741 23.1125 16.5812 23.107 16.0968C23.0984 15.4092 23.0984 15.4092 22.4305 15.4092C21.7625 15.4092 21.7594 15.4092 21.7524 16.1304C21.7476 16.5984 21.6109 16.7525 21.1938 16.9016C20.7509 17.0549 20.3188 17.2406 19.9008 17.4573C19.3953 17.7245 19.2406 17.7253 18.8453 17.3155C18.3594 16.8131 18.4711 16.8148 17.9859 17.3237C17.4742 17.8564 17.4758 17.8573 17.9688 18.3966C18.268 18.7244 18.2766 18.9236 18.0906 19.3333C17.8771 19.7908 17.6898 20.2612 17.5297 20.7422C17.3734 21.2257 17.2297 21.3724 16.7352 21.3765C16.0938 21.3814 16.0914 21.3814 16.0946 22.0699C16.0993 22.9026 16.0054 22.7846 16.775 22.7927C17.2398 22.7977 17.3805 22.9354 17.5274 23.3943C17.6733 23.8588 17.85 24.3121 18.0562 24.7507C18.2984 25.258 18.2961 25.4359 17.9188 25.8326C17.4102 26.3678 17.4281 26.2267 17.9188 26.7521C18.4094 27.2774 18.4234 27.284 18.9406 26.7611C19.2391 26.4595 19.4414 26.4497 19.8094 26.6349C20.2445 26.8609 20.6922 27.0594 21.15 27.2291C21.6555 27.4078 21.775 27.5397 21.7812 28.1019C21.7859 28.8396 21.7031 28.7576 22.4062 28.7576C23.2461 28.7576 23.1266 28.8682 23.1367 27.9913C23.1414 27.5586 23.2758 27.4069 23.6649 27.2635C24.1251 27.1015 24.5754 26.9099 25.0133 26.6898C25.5016 26.4349 25.65 26.4341 26.0437 26.8398C26.5539 27.3659 26.4141 27.3569 26.9219 26.8307C27.4297 26.3046 27.4281 26.3005 26.9219 25.7563C26.6368 25.4473 26.6273 25.2343 26.8078 24.8458C27.0196 24.4091 27.2036 23.9582 27.3586 23.4959C27.5516 22.8878 27.6336 22.7936 28.2406 22.7944C28.8821 22.7944 28.8219 22.8346 28.8219 22.1789C28.8219 21.4101 28.8219 21.4101 28.0766 21.3765C27.6953 21.3593 27.5297 21.2036 27.4086 20.8159C27.2939 20.4158 27.1535 20.0242 26.9883 19.6439C26.5859 18.7752 26.5743 18.7817 27.2172 18.081C27.2766 18.0171 27.3281 17.9449 27.4094 17.8409Z" fill="#0F84FD"/>
<path d="M13.2157 16.1116C12.747 15.5534 12.2962 15.0281 11.8516 14.4995C11.5704 14.1651 11.561 13.8004 11.822 13.5496C12.0829 13.2988 12.4399 13.3389 12.7196 13.6643C13.2404 14.2714 13.7589 14.8819 14.2751 15.4961C14.6063 15.8928 14.6118 16.3156 14.2853 16.7115C13.7603 17.3437 13.2293 17.9701 12.6923 18.5908C12.4415 18.8818 12.0837 18.9113 11.8329 18.6834C11.5712 18.4449 11.5603 18.0679 11.8204 17.7573C12.2766 17.2123 12.7384 16.6738 13.2157 16.1116Z" fill="#0F84FD"/>
<path d="M4.65154 16.1132C5.11013 16.6541 5.54685 17.1647 5.97966 17.6794C6.06729 17.7763 6.14003 17.8869 6.19529 18.0072C6.29322 18.2761 6.19921 18.5801 5.9695 18.7374C5.74112 18.8988 5.43561 18.8668 5.24216 18.6613C4.65622 17.9892 4.07497 17.3106 3.51247 16.6172C3.25388 16.2976 3.2781 15.8796 3.55388 15.5469C4.09242 14.8978 4.63773 14.2552 5.18982 13.6192C5.43357 13.3373 5.77654 13.3135 6.02575 13.5373C6.27497 13.761 6.30859 14.1478 6.06794 14.4388C5.70466 14.8806 5.32888 15.3116 4.95857 15.7501C4.86091 15.8599 4.7656 15.9755 4.65154 16.1132Z" fill="#0F84FD"/>
<path d="M10.1344 13.4807C9.98282 14.1594 9.85001 14.7576 9.71482 15.3543C9.46407 16.4582 9.21564 17.5671 8.95545 18.6653C8.92082 18.8338 8.8482 18.9912 8.74376 19.1244C8.5617 19.335 8.31407 19.3637 8.0742 19.2268C7.83439 19.0899 7.7117 18.8522 7.77576 18.5564C7.95389 17.7368 8.13982 16.923 8.32264 16.1075C8.52107 15.2313 8.71326 14.3552 8.92107 13.4849C9.03982 12.9792 9.49532 12.7546 9.84607 13.0431C9.98595 13.1545 10.0578 13.3578 10.1344 13.4807Z" fill="#0F84FD"/>
<path d="M8.87268 22.7976C9.03056 22.7956 9.18243 22.8612 9.29306 22.9794C9.40374 23.0977 9.46349 23.2582 9.45862 23.4237C9.45312 23.7573 9.19606 24.0259 8.87812 24.0302C8.55018 24.0309 8.28124 23.7578 8.27112 23.4139C8.27231 23.2483 8.33656 23.0901 8.44949 22.9743C8.56249 22.8586 8.71481 22.795 8.87268 22.7976Z" fill="#0F84FD"/>
<path d="M20.2063 6.81675C19.3086 6.81675 18.4094 6.83481 17.5125 6.81188C16.5118 6.78156 15.6901 5.97257 15.5977 4.92683C15.4992 3.95482 16.1195 3.00657 17.0422 2.74185C17.2401 2.68719 17.4438 2.65964 17.6485 2.65989C19.3469 2.65334 21.0461 2.64924 22.7445 2.65989C23.604 2.66481 24.2547 3.06148 24.6125 3.88925C24.9492 4.66703 24.8398 5.41284 24.3258 6.07423C23.9352 6.58075 23.4024 6.81188 22.7836 6.82006C21.9242 6.82663 21.0648 6.82006 20.2055 6.82006L20.2063 6.81675ZM20.2133 5.58167C21.0235 5.58167 21.8337 5.58167 22.643 5.58167C22.7793 5.58388 22.9154 5.56734 23.0477 5.53249C23.3972 5.42465 23.6305 5.07945 23.6119 4.69781C23.5933 4.31617 23.3277 3.99771 22.9696 3.92777C22.8442 3.90779 22.7174 3.89929 22.5907 3.90236C21.0974 3.90236 19.6042 3.90236 18.111 3.90236C17.8967 3.89632 17.6823 3.90261 17.4688 3.92121C17.1568 3.94692 16.8946 4.17723 16.8157 4.49491C16.6477 5.05551 17.0313 5.57019 17.6367 5.57839C18.4953 5.58986 19.3547 5.58167 20.2133 5.58167Z" fill="#0F84FD"/>
<path d="M12.5992 4.74161C12.5953 5.88736 11.7083 6.81369 10.6161 6.81263C9.52391 6.81163 8.6386 5.88352 8.63672 4.73777C8.63485 3.59202 9.51716 2.66078 10.6093 2.65579C11.137 2.65493 11.6434 2.87435 12.0167 3.26566C12.39 3.65696 12.5996 4.188 12.5992 4.74161ZM10.625 3.90319C10.1844 3.89731 9.82278 4.26718 9.81716 4.72932C9.81153 5.19146 10.1641 5.57088 10.6047 5.57677C11.0462 5.5792 11.4091 5.21196 11.4226 4.74899C11.4239 4.28481 11.0674 3.90679 10.625 3.90319Z" fill="#0F84FD"/>
<path d="M7.45941 4.72768C7.45973 5.56694 6.97773 6.32364 6.23851 6.64451C5.49928 6.96533 4.64856 6.78708 4.08355 6.19296C3.51852 5.59881 3.35063 4.70594 3.65824 3.93121C3.96585 3.15647 4.6883 2.65266 5.48831 2.65498C6.57716 2.65904 7.4581 3.58544 7.45941 4.72768ZM6.2766 4.72768C6.25773 4.28171 5.9076 3.93033 5.48206 3.93033C5.05653 3.93033 4.70639 4.28171 4.68753 4.72768C4.67844 5.03184 4.82793 5.31708 5.07762 5.47198C5.32731 5.62688 5.63759 5.62688 5.88728 5.47198C6.13697 5.31708 6.28648 5.03184 6.27735 4.72768H6.2766Z" fill="#0F84FD"/>
<path d="M22.4531 18.3023C24.4451 18.3023 26.06 19.9963 26.0601 22.086C26.0603 24.1757 24.4456 25.8699 22.4536 25.8702C20.4616 25.8706 18.8465 24.1768 18.8461 22.0871C18.8513 19.9994 20.463 18.3082 22.4531 18.3023ZM20.0313 22.0764C20.0291 23.1046 20.6177 24.0327 21.5225 24.4278C22.4273 24.8229 23.4699 24.6069 24.1637 23.8807C24.8575 23.1546 25.0657 22.0613 24.6912 21.1112C24.3166 20.1611 23.4332 19.5415 22.4531 19.5415C21.1185 19.5442 20.0361 20.6764 20.0297 22.0764H20.0313Z" fill="#0F84FD"/>
</g>
</svg>
